<svg width="40" height="40" viewBox="0 0 40 40" fill="none" xmlns="http://www.w3.org/2000/svg">
<path d="M28.5 33.2223C29.7525 33.2223 30.9536 32.7247 31.8392 31.8392C32.7247 30.9536 33.2223 29.7525 33.2223 28.5C33.2223 27.2476 32.7247 26.0465 31.8392 25.1609C30.9536 24.2753 29.7525 23.7778 28.5 23.7778C27.2476 23.7778 26.0465 24.2753 25.1609 25.1609C24.2753 26.0465 23.7778 27.2476 23.7778 28.5C23.7778 29.7525 24.2753 30.9536 25.1609 31.8392C26.0465 32.7247 27.2476 33.2223 28.5 33.2223Z" stroke="#EFF5F5" stroke-width="6" stroke-linecap="round" stroke-linejoin="round"/>
<path d="M16.2222 6.77777L19.9999 3" stroke="#EFF5F5" stroke-width="6" stroke-linecap="round" stroke-linejoin="round"/>
<path d="M14.8392 14.8392C13.9536 15.7247 12.7525 16.2223 11.5 16.2223C10.2476 16.2223 9.04652 15.7247 8.16094 14.8392C7.27535 13.9536 6.77783 12.7525 6.77783 11.5C6.77783 10.2476 7.27535 9.04652 8.16094 8.16094C9.04652 7.27535 10.2476 6.77783 11.5 6.77783C12.7525 6.77783 13.9536 7.27535 14.8392 8.16094C15.7247 9.04652 16.2223 10.2476 16.2223 11.5C16.2223 12.7525 15.7247 13.9536 14.8392 14.8392Z" stroke="#EFF5F5" stroke-width="6" stroke-linecap="round" stroke-linejoin="round"/>
<path d="M12.4444 27.5555L27.5555 12.4444M7.72221 37C8.97462 37 10.1757 36.5024 11.0613 35.6169C11.9469 34.7313 12.4444 33.5302 12.4444 32.2777C12.4444 31.0253 11.9469 29.8242 11.0613 28.9386C10.1757 28.053 8.97462 27.5555 7.72221 27.5555C6.4698 27.5555 5.26869 28.053 4.3831 28.9386C3.49752 29.8242 3 31.0253 3 32.2777C3 33.5302 3.49752 34.7313 4.3831 35.6169C5.26869 36.5024 6.4698 37 7.72221 37ZM32.2777 12.4444C33.5302 12.4444 34.7313 11.9469 35.6169 11.0613C36.5024 10.1757 37 8.97462 37 7.72221C37 6.4698 36.5024 5.26869 35.6169 4.3831C34.7313 3.49752 33.5302 3 32.2777 3C31.0253 3 29.8242 3.49752 28.9386 4.3831C28.053 5.26869 27.5555 6.4698 27.5555 7.72221C27.5555 8.97462 28.053 10.1757 28.9386 11.0613C29.8242 11.9469 31.0253 12.4444 32.2777 12.4444Z" stroke="url(#paint0_linear_379_587)" stroke-width="6" stroke-linecap="round" stroke-linejoin="round"/>
<path d="M20 36.9999L23.7778 33.2222" stroke="#EFF5F5" stroke-width="6" stroke-linecap="round" stroke-linejoin="round"/>
<defs>
<linearGradient id="paint0_linear_379_587" x1="32" y1="6" x2="11" y2="35.5" gradientUnits="userSpaceOnUse">
<stop offset="0.035" stop-color="#EB5E28"/>
<stop offset="0.965" stop-color="#990000"/>
</linearGradient>
</defs>
</svg>
